<svg width="2740" height="787" viewBox="0 0 2740 787" fill="none" xmlns="http://www.w3.org/2000/svg">
<g opacity="0.15">
<path d="M315.649 626.685C315.649 733.562 263.203 787 157.339 787C52.4463 787 0 733.562 0 626.685V160.315C0 53.4383 52.4463 0 157.339 0C263.203 0 315.649 53.4383 315.649 160.315V626.685ZM205.9 160.315C205.9 126.309 190.361 108.82 158.31 108.82H157.339C125.288 108.82 109.749 126.309 109.749 160.315V626.685C109.749 660.691 125.288 678.18 157.339 678.18C189.39 678.18 205.9 660.691 205.9 626.685V160.315Z" fill="#DC6D48"/>
<path d="M410.832 774.369V11.6594H520.58V665.55H695.401V774.369H410.832Z" fill="#DC6D48"/>
<path d="M790.58 12.6284H959.573C1057.67 12.6284 1106.23 66.0667 1106.23 172.943V615.023C1106.23 721.9 1057.67 774.367 959.573 774.367C957.631 774.367 955.688 774.367 952.775 774.367H790.58V12.6284ZM900.328 120.477V666.519H948.89C980.94 666.519 996.48 649.03 996.48 615.023V172.943C996.48 137.965 980.94 120.477 948.89 120.477H900.328Z" fill="#DC6D48"/>
<path d="M1516.09 626.685C1516.09 733.562 1463.64 787 1357.78 787C1252.89 787 1200.44 733.562 1200.44 626.685V160.315C1200.44 53.4383 1252.89 0 1357.78 0C1463.64 0 1516.09 53.4383 1516.09 160.315V626.685ZM1406.34 160.315C1406.34 126.309 1390.8 108.82 1358.75 108.82H1357.78C1325.73 108.82 1310.19 126.309 1310.19 160.315V626.685C1310.19 660.691 1325.73 678.18 1357.78 678.18C1389.83 678.18 1406.34 660.691 1406.34 626.685V160.315Z" fill="#5998BB"/>
<path d="M1611.27 12.6284H1771.52C1869.62 12.6284 1918.18 66.0667 1918.18 172.943V287.593C1918.18 354.633 1889.04 399.327 1831.74 419.731L1955.08 774.367H1834.65L1735.59 439.163L1721.02 441.106V774.367H1611.27V12.6284ZM1721.02 120.477V339.088H1746.27C1761.81 339.088 1772.49 338.116 1777.35 336.173C1796.77 328.4 1807.46 311.883 1807.46 287.593V172.943C1807.46 137.965 1791.92 120.477 1759.87 120.477H1721.02Z" fill="#5998BB"/>
<path d="M2329.01 626.685C2329.01 733.562 2276.56 787 2170.7 787C2065.8 787 2013.36 733.562 2013.36 626.685V160.315C2013.36 53.4383 2065.8 0 2170.7 0C2276.56 0 2329.01 53.4383 2329.01 160.315V263.305H2219.26V160.315C2219.26 126.309 2203.72 108.82 2171.67 108.82H2170.7C2138.65 108.82 2123.11 126.309 2123.11 160.315V626.685C2123.11 660.691 2138.65 678.18 2170.7 678.18C2202.75 678.18 2219.26 660.691 2219.26 626.685V523.695H2329.01V626.685Z" fill="#5998BB"/>
<path d="M2424.19 160.315C2424.19 53.4383 2476.63 0 2581.53 0C2687.39 0 2739.84 53.4383 2739.84 160.315V263.305H2630.09V160.315C2630.09 126.309 2614.55 108.82 2582.5 108.82H2581.53C2549.48 108.82 2533.94 126.309 2533.94 160.315V229.299C2533.94 263.305 2567.93 305.084 2636.89 353.664C2705.84 402.244 2739.84 461.512 2739.84 529.525V625.714C2739.84 732.59 2687.39 786.028 2582.5 786.028C2476.63 786.028 2424.19 732.59 2424.19 625.714V522.723H2533.94V625.714C2533.94 659.72 2550.45 677.209 2582.5 677.209C2614.55 677.209 2630.09 659.72 2630.09 625.714V538.269C2630.09 501.348 2596.1 458.598 2527.14 409.046C2458.18 360.466 2424.19 300.226 2424.19 230.27V160.315Z" fill="#5998BB"/>
</g>
</svg>
