<svg width="15" height="15" viewBox="0 0 15 15" fill="none" xmlns="http://www.w3.org/2000/svg">
<g clip-path="url(#clip0)">
<path d="M13.6607 13.3928C13.9978 13.3928 14.29 13.2814 14.5384 13.0616L10.2886 8.81169C10.1867 8.8847 10.0878 8.9557 9.99448 9.02321C9.67645 9.25753 9.41833 9.44037 9.22012 9.57139C9.02195 9.70271 8.75827 9.83656 8.42913 9.97322C8.09977 10.11 7.79293 10.1782 7.50829 10.1782H7.49996H7.49162C7.20695 10.1782 6.90011 10.1101 6.57078 9.97322C6.24145 9.83656 5.97777 9.70271 5.77979 9.57139C5.58161 9.44037 5.32363 9.25756 5.00543 9.02321C4.91676 8.95821 4.81842 8.88688 4.7121 8.81055L0.461548 13.0616C0.709889 13.2814 1.00224 13.3928 1.33939 13.3928H13.6607Z" fill="white"/>
<path d="M0.845514 6.13556C0.52751 5.92354 0.245509 5.68073 0 5.40723V11.8731L3.7457 8.1274C2.99635 7.60425 2.03085 6.94106 0.845514 6.13556Z" fill="white"/>
<path d="M14.1628 6.13556C13.0227 6.90724 12.0536 7.57157 11.2556 8.1289L14.9998 11.8733V5.40723C14.7598 5.67523 14.4808 5.91788 14.1628 6.13556Z" fill="white"/>
<path d="M13.6608 1.60693H1.33957C0.909715 1.60693 0.579239 1.75209 0.347728 2.0421C0.116026 2.33224 0.000366211 2.6951 0.000366211 3.13026C0.000366211 3.48176 0.153853 3.86262 0.460692 4.27294C0.76753 4.68311 1.09403 5.00528 1.44003 5.23962C1.62971 5.37363 2.20172 5.7713 3.15606 6.43247C3.67123 6.78947 4.11925 7.10064 4.50425 7.36916C4.83241 7.59781 5.11542 7.79582 5.34908 7.96015C5.37591 7.97897 5.41809 8.00914 5.47408 8.04918C5.5344 8.0925 5.61074 8.14749 5.70491 8.21549C5.88626 8.34665 6.03691 8.45266 6.1569 8.53366C6.27673 8.61468 6.42191 8.70517 6.59223 8.80566C6.76241 8.90602 6.92292 8.98148 7.07358 9.03167C7.22426 9.08184 7.36375 9.107 7.49207 9.107H7.50041H7.50874C7.63704 9.107 7.77655 9.08184 7.92726 9.03167C8.07789 8.98148 8.23827 8.90618 8.40859 8.80566C8.57874 8.70517 8.72373 8.61449 8.84394 8.53366C8.96393 8.45266 9.11458 8.34667 9.29596 8.21549C9.38994 8.14749 9.46627 8.09248 9.5266 8.04931C9.58262 8.00912 9.62477 7.97913 9.65176 7.96015C9.83379 7.83349 10.1175 7.63629 10.4988 7.37147C11.1928 6.88931 12.2148 6.17963 13.5692 5.23962C13.9765 4.95511 14.3168 4.61178 14.5903 4.21012C14.8633 3.80845 15.0002 3.38712 15.0002 2.94627C15.0002 2.57794 14.8675 2.26277 14.6027 2.00027C14.3375 1.73809 14.0235 1.60693 13.6608 1.60693Z" fill="white"/>
</g>
<defs>
<clipPath id="clip0">
<rect width="15" height="15" fill="white"/>
</clipPath>
</defs>
</svg>
