<svg width="15" height="15" viewBox="0 0 15 15" fill="none" xmlns="http://www.w3.org/2000/svg">
<path d="M14.1667 10.4167C13.1292 10.4167 12.125 10.25 11.1917 9.94168C10.9042 9.85 10.575 9.91668 10.3459 10.1459L8.51254 11.9834C6.15004 10.7834 4.22086 8.85418 3.02086 6.49586L4.85418 4.65418C5.08336 4.425 5.15 4.09586 5.05836 3.80836C4.75004 2.87504 4.58336 1.87086 4.58336 0.833359C4.58332 0.37082 4.2125 0 3.75 0H0.83332C0.375 0 0 0.37082 0 0.83332C0 8.65832 6.34168 15 14.1667 15C14.6292 15 15 14.6292 15 14.1667V11.25C15 10.7875 14.6292 10.4167 14.1667 10.4167Z" fill="white"/>
</svg>
